<svg width="28" height="27" viewBox="0 0 28 27" fill="none" xmlns="http://www.w3.org/2000/svg">
<path d="M13.9705 26.3815C11.3632 26.3789 8.81546 25.6007 6.65082 24.1472C4.48618 22.6937 2.80228 20.6299 1.81305 18.2175C0.823828 15.8051 0.573881 13.1531 1.09491 10.5983C1.61594 8.04356 2.88452 5.70122 4.73944 3.86884C6.59437 2.03647 8.95193 0.797062 11.5129 0.307319C14.0738 -0.182423 16.7226 0.100183 19.1227 1.11884C21.5229 2.1375 23.5662 3.84576 24.9931 6.02802C26.42 8.21028 27.1662 10.7675 27.1369 13.3747C27.0942 16.8386 25.6883 20.1462 23.2238 22.5808C20.7593 25.0153 17.4347 26.3812 13.9705 26.3815ZM14.0803 25.989C16.6148 25.9659 19.0851 25.1889 21.1762 23.7565C23.2673 22.3242 24.8846 20.301 25.8218 17.946C26.7591 15.591 26.9738 13.0104 26.4387 10.5329C25.9035 8.05538 24.6427 5.79312 22.8171 4.03486C20.9914 2.27659 18.6836 1.10244 16.1877 0.660835C13.6918 0.219227 11.1209 0.530277 8.8028 1.55537C6.48467 2.58046 4.5242 4.27319 3.17145 6.41669C1.8187 8.56019 1.13497 11.0579 1.20722 13.5915C1.30393 16.9315 2.70601 20.0998 5.11274 22.4177C7.51946 24.7355 10.739 26.0179 14.0803 25.989Z" fill="white"/>
<path d="M13.9765 23.797C11.8846 23.7963 9.84006 23.1753 8.10161 22.0118C6.36316 20.8483 5.00901 19.1954 4.21074 17.2618C3.41246 15.3282 3.2059 13.2005 3.61723 11.1495C4.02856 9.09847 5.0393 7.21556 6.52141 5.73933C8.00351 4.26311 9.89028 3.26067 11.9429 2.8575C13.9956 2.45432 16.1217 2.66873 18.052 3.47469C19.9824 4.28064 21.6302 5.64178 22.7868 7.38484C23.9433 9.1279 24.5567 11.1748 24.5491 13.2667C24.5361 16.0628 23.4166 18.7397 21.4355 20.713C19.4543 22.6862 16.7727 23.795 13.9765 23.797ZM13.9795 23.4864C15.9995 23.4831 17.9734 22.8834 19.654 21.7628C21.3345 20.6421 22.6469 19.051 23.4264 17.1876C24.206 15.3241 24.4179 13.2716 24.0359 11.2882C23.6539 9.30469 22.6948 7.4778 21.279 6.03719C19.8631 4.59657 18.0535 3.60682 16.0769 3.19051C14.1004 2.7742 12.0449 2.95021 10.1683 3.69734C8.29159 4.44447 6.67723 5.72885 5.52763 7.38972C4.37803 9.0506 3.74431 11.0137 3.70598 13.0333C3.67939 14.3982 3.92559 15.755 4.43022 17.0235C4.93485 18.292 5.68777 19.4473 6.6447 20.421C7.60162 21.3946 8.74331 22.1669 10.0029 22.6934C11.2624 23.22 12.6144 23.4893 13.9795 23.4864Z" fill="white"/>
<path d="M9.90464 24.5585L10.4524 24.2577C10.3947 24.1429 10.3439 24.0416 10.2928 23.9403C10.255 23.8653 10.2528 23.793 10.3368 23.7528C10.4132 23.7163 10.4682 23.755 10.5014 23.828C10.509 23.8447 10.5186 23.8606 10.5271 23.8768C10.6587 24.1277 10.6584 24.1277 10.9226 24.0067C10.9975 23.9724 11.0751 23.9441 11.1496 23.9091C11.2238 23.8742 11.2845 23.8806 11.3226 23.9579C11.3625 24.0387 11.3191 24.0867 11.2503 24.1229C10.9467 24.2832 10.6432 24.4443 10.3399 24.6054C10.3043 24.6243 10.2699 24.6454 10.2328 24.6669C10.2915 24.7272 10.3687 24.766 10.4521 24.7772C10.5355 24.7885 10.6204 24.771 10.693 24.7284C10.983 24.5715 11.2725 24.4143 11.5615 24.2557C11.5816 24.2447 11.6012 24.2328 11.6217 24.2225C11.638 24.2114 11.6565 24.2042 11.676 24.2011C11.6955 24.1979 11.7155 24.1986 11.7345 24.204C11.7535 24.2094 11.771 24.2193 11.7859 24.2323C11.8008 24.2453 11.8127 24.2611 11.8207 24.2792C11.867 24.3652 11.7969 24.4061 11.7375 24.4393C11.4499 24.6003 11.1524 24.7458 10.8745 24.9218C10.7897 24.9807 10.6908 25.016 10.5879 25.0243C10.4849 25.0326 10.3816 25.0133 10.2884 24.9686C9.92337 24.8225 9.547 24.7049 9.17368 24.58C9.13476 24.5697 9.09895 24.5504 9.06919 24.5233C9.03943 24.4962 9.01661 24.4615 9.00278 24.4237C8.86239 24.0756 8.71464 23.7309 8.56955 23.3847C8.56248 23.3678 8.54547 23.3484 8.54941 23.3348C8.56804 23.271 8.57432 23.1805 8.61863 23.1522C8.69352 23.1045 8.75224 23.1681 8.7844 23.244C8.89688 23.5095 9.00964 23.7747 9.12265 24.0399C9.14192 24.0764 9.15781 24.1139 9.17014 24.1532C9.21582 24.3617 9.36978 24.4287 9.5698 24.4579C9.56854 24.4277 9.56413 24.3973 9.55649 24.368C9.4307 24.0437 9.30383 23.72 9.17612 23.3964C9.16777 23.3751 9.14876 23.351 9.15329 23.3329C9.16719 23.2775 9.19013 23.2239 9.20957 23.1698C9.26057 23.1964 9.33321 23.2108 9.35837 23.2528C9.41607 23.362 9.46783 23.474 9.51352 23.5888C9.53608 23.6378 9.56386 23.6845 9.59299 23.7391C9.70373 23.6982 9.8061 23.661 9.9083 23.6229C9.98821 23.5932 10.0674 23.6042 10.0865 23.6893C10.0952 23.7278 10.0307 23.7831 9.99814 23.83C9.99363 23.8364 9.98199 23.838 9.97361 23.8417C9.66518 23.9785 9.66493 23.9784 9.79416 24.2977C9.82777 24.381 9.86401 24.4628 9.90464 24.5585Z" fill="white"/>
<path d="M17.7062 24.6619C17.5312 24.5667 17.3766 24.4814 17.2207 24.3983C17.039 24.3013 16.857 24.2049 16.6736 24.1112C16.599 24.073 16.5497 24.0248 16.5928 23.9393C16.6351 23.8555 16.7042 23.8614 16.7805 23.8963C16.9095 23.9552 17.0427 24.0052 17.1701 24.0672C17.2399 24.1012 17.2798 24.0914 17.3095 24.0203C17.3306 23.9697 17.3568 23.9214 17.3826 23.8729C17.4249 23.7933 17.4599 23.682 17.5797 23.7391C17.6988 23.7958 17.6425 23.8917 17.5996 23.9744C17.5616 24.0369 17.5281 24.1015 17.4994 24.1688C17.4953 24.1876 17.4959 24.2078 17.5012 24.2264C17.5065 24.2449 17.5163 24.2614 17.5298 24.2752C17.6821 24.3665 17.84 24.4484 18.0166 24.5448C18.0902 24.357 18.162 24.1816 18.2249 24.0028C18.2315 23.9838 18.1918 23.9345 18.1631 23.9198C18.086 23.8803 18.0024 23.8535 17.923 23.8182C17.8579 23.7892 17.7831 23.7456 17.8334 23.6678C17.8597 23.6271 17.942 23.6158 18.0014 23.6063C18.0328 23.6013 18.0698 23.6278 18.1038 23.6414C18.3289 23.7313 18.3289 23.7315 18.4307 23.5047C18.4682 23.4212 18.5065 23.3379 18.5425 23.2537C18.5743 23.1794 18.6191 23.1193 18.708 23.1561C18.7995 23.1939 18.7807 23.2724 18.7532 23.3436C18.6345 23.651 18.5137 23.9575 18.3938 24.2645C18.3729 24.3181 18.3527 24.3725 18.3228 24.451C18.511 24.3997 18.6628 24.3782 18.7328 24.1766C18.8392 23.8703 18.9813 23.5765 19.1101 23.2781C19.146 23.1952 19.1806 23.0821 19.2998 23.1326C19.407 23.1781 19.3832 23.2768 19.3439 23.3699C19.1926 23.7284 19.047 24.0898 18.8932 24.4471C18.8691 24.494 18.8285 24.53 18.7792 24.5487C18.3264 24.7092 17.8722 24.8653 17.4165 25.0174C17.3575 25.0348 17.2941 25.0299 17.2384 25.0037C16.8909 24.8192 16.5471 24.6274 16.2035 24.4354C16.1333 24.3961 16.0415 24.3564 16.1068 24.2489C16.1642 24.1545 16.2476 24.1815 16.3238 24.2225C16.6139 24.3788 16.9117 24.5234 17.189 24.7C17.3766 24.8197 17.5206 24.7497 17.7062 24.6619Z" fill="white"/>
<path d="M13.5969 25.3066C13.393 25.0658 13.2013 24.8396 13.0099 24.6133C12.9404 24.5404 12.8767 24.4626 12.8192 24.3799C12.7952 24.3403 12.8144 24.2737 12.814 24.2197C12.871 24.2253 12.9474 24.2094 12.9813 24.2402C13.1127 24.3599 13.2305 24.4949 13.3627 24.6338C13.4495 24.5629 13.5316 24.499 13.6094 24.4307C13.6758 24.3723 13.7469 24.342 13.8139 24.415C13.8833 24.4908 13.8227 24.5478 13.7655 24.5986C13.7235 24.6409 13.6785 24.6801 13.6309 24.7158C13.5259 24.7848 13.5181 24.849 13.6096 24.9414C13.7182 25.0511 13.8136 25.1741 13.9271 25.3057C14.06 25.1603 14.1854 25.0286 14.302 24.8896C14.3086 24.8711 14.3105 24.8506 14.3076 24.8311C14.3048 24.8115 14.2972 24.7932 14.2855 24.7773C14.2176 24.7164 14.1531 24.6521 14.0924 24.584C14.0618 24.5384 14.0761 24.4625 14.0702 24.4004C14.1314 24.4044 14.207 24.3873 14.2506 24.417C14.3388 24.4868 14.4212 24.5634 14.4971 24.6465C14.6285 24.525 14.7486 24.4137 14.8695 24.3027C14.9301 24.2471 14.9961 24.1984 15.0725 24.2725C15.1509 24.3485 15.1008 24.4091 15.0426 24.4707C14.8192 24.7072 14.5978 24.9455 14.3761 25.1836C14.3424 25.2198 14.3109 25.2584 14.2765 25.2979C14.3471 25.3366 14.4287 25.3505 14.5081 25.3369C14.5874 25.3233 14.6599 25.2827 14.7136 25.2227C14.9339 24.9832 15.1534 24.743 15.372 24.502C15.3967 24.4749 15.4173 24.4321 15.4469 24.4248C15.5111 24.409 15.5958 24.384 15.6433 24.4121C15.7213 24.4581 15.6749 24.5312 15.6256 24.5859C15.4142 24.8209 15.1863 25.0438 14.9961 25.2949C14.9273 25.3924 14.8329 25.4691 14.7234 25.5166C14.6139 25.5641 14.4935 25.5799 14.3753 25.5635C13.9959 25.5421 13.6145 25.5615 13.2341 25.5537C13.1648 25.5503 13.0989 25.5218 13.0488 25.4736C12.789 25.196 12.5377 24.9099 12.2836 24.627C12.2713 24.6133 12.26 24.599 12.2482 24.585C12.234 24.5729 12.2227 24.558 12.215 24.541C12.2073 24.5241 12.2034 24.5059 12.2036 24.4873C12.2038 24.4687 12.2081 24.4503 12.2162 24.4336C12.2243 24.4168 12.2359 24.4024 12.2504 24.3906C12.3212 24.3283 12.3845 24.3631 12.4401 24.4248C12.6364 24.6427 12.8333 24.8594 13.0308 25.0762C13.0646 25.1135 13.0987 25.1512 13.1327 25.1885C13.2839 25.3533 13.335 25.3679 13.5969 25.3066Z" fill="white"/>
<path d="M2.44067 15.8359C2.38176 15.7097 2.27452 15.7252 2.1875 15.707C1.9971 15.6673 1.93599 15.6093 1.91943 15.4131C1.96318 15.4225 2.02775 15.4209 2.03394 15.4395C2.07153 15.5523 2.17016 15.5493 2.25598 15.5723C2.31706 15.5886 2.37833 15.6041 2.42529 15.6162L2.86975 15.2148C2.94929 15.3567 2.93288 15.444 2.80994 15.5215C2.71399 15.5909 2.62325 15.6674 2.53833 15.75L2.56616 15.8037L2.99316 15.7295L3.04089 15.8877L2.57898 15.999C2.61807 16.0367 2.66151 16.0693 2.70837 16.0967C2.77607 16.1248 2.84728 16.1443 2.92004 16.1533C3.0598 16.1668 3.13954 16.2285 3.13257 16.4102L2.55371 16.2285C2.47596 16.2777 2.4032 16.3341 2.33643 16.3975C2.28104 16.4748 2.23463 16.5587 2.198 16.6465C2.107 16.452 2.13407 16.3622 2.27612 16.2578C2.35521 16.1997 2.42821 16.1339 2.50403 16.0713L2.4762 16.0205L2.06311 16.0977L2.01892 15.9375L2.44067 15.8359Z" fill="white"/>
<path d="M13.2668 1.10645C13.2867 1.35962 13.3018 1.59179 13.3258 1.82324C13.3304 1.86806 13.3706 1.90942 13.3922 1.95312C13.41 1.98146 13.4223 2.01297 13.4284 2.0459C13.4334 2.13184 13.4301 2.21774 13.4301 2.31152L13.3083 2.32422C13.3022 2.29152 13.2983 2.25882 13.2966 2.22559C13.2984 2.13582 13.2569 2.10565 13.169 2.11426C13.0325 2.12771 12.8953 2.13836 12.7583 2.13965C12.6443 2.14071 12.597 2.18095 12.6285 2.29688C12.6304 2.32222 12.6285 2.34728 12.6229 2.37207L12.4903 2.38867C12.4792 2.27736 12.4689 2.17502 12.459 2.07227C12.4581 2.06334 12.4565 2.0492 12.4614 2.04492C12.7018 1.83425 12.5981 1.55592 12.5959 1.30371C12.5948 1.17671 12.6153 1.13418 12.7439 1.13477C12.9119 1.13572 13.0799 1.11753 13.2668 1.10645ZM12.7663 1.31445V1.99316C12.8612 1.98563 12.9599 1.97428 13.0588 1.9707C13.1326 1.96803 13.152 1.93502 13.1446 1.86621C13.1324 1.75252 13.1272 1.63746 13.1178 1.52344C13.094 1.23675 13.0938 1.23667 12.8045 1.29395C12.7914 1.29966 12.7786 1.30712 12.7663 1.31445Z" fill="white"/>
<path d="M18.5457 2.49609C18.5957 2.5399 18.627 2.60173 18.6331 2.66797C18.6391 2.73421 18.6195 2.80036 18.5782 2.85254C18.5402 2.90516 18.4847 2.94244 18.4216 2.95801C18.3586 2.97357 18.2922 2.96636 18.234 2.9375C18.0753 2.87978 17.9178 2.81872 17.7402 2.75195L18.0984 1.81152C18.2839 1.88907 18.4664 1.94903 18.6326 2.03906C18.8312 2.14664 18.7901 2.36438 18.5457 2.49609ZM17.9736 2.68066C18.0697 2.7247 18.1697 2.76001 18.2723 2.78516C18.324 2.79335 18.4231 2.75146 18.4332 2.71387C18.4386 2.68111 18.4362 2.64684 18.426 2.61523C18.4158 2.58363 18.3983 2.55469 18.3748 2.53125C18.1295 2.3484 18.0461 2.37952 17.9736 2.68066ZM18.2163 2.01953C18.1907 2.07456 18.1693 2.13119 18.1523 2.18945C18.1465 2.21721 18.1579 2.26932 18.1768 2.27832C18.2526 2.32066 18.3351 2.35004 18.4208 2.36426C18.4496 2.36213 18.4774 2.35222 18.502 2.33691C18.5265 2.32161 18.547 2.30132 18.5615 2.27637C18.5763 2.24413 18.5368 2.15956 18.4984 2.13574C18.4079 2.08912 18.3135 2.05011 18.2163 2.01953Z" fill="white"/>
<path d="M25.8441 10.6719C25.8873 10.8493 25.9187 11.0294 25.9384 11.2109C25.9325 11.3029 25.8914 11.3888 25.8235 11.4512C25.7276 11.5411 25.619 11.4818 25.5273 11.416C25.5161 11.4217 25.503 11.4237 25.501 11.4297C25.4865 11.4905 25.4507 11.5445 25.4 11.5811C25.3494 11.6176 25.2872 11.6343 25.225 11.6289C25.0855 11.6234 25.0014 11.5372 24.9658 11.3721C24.9304 11.2078 24.8981 11.0425 24.8613 10.8623L25.8441 10.6719ZM25.4154 11.2861L25.391 11.2598C25.3766 11.2027 25.3665 11.1446 25.361 11.0859C25.358 10.9661 25.2944 10.9644 25.1981 10.9766C25.0765 10.9919 25.0295 11.0401 25.0676 11.1611C25.0839 11.2129 25.0911 11.2673 25.1064 11.3193C25.1312 11.4032 25.1874 11.4673 25.2748 11.4307C25.3318 11.4068 25.3693 11.3358 25.4154 11.2861ZM25.7964 11.21C25.781 11.1149 25.7682 11.0567 25.7631 10.998C25.7546 10.9019 25.7072 10.8796 25.6157 10.8965C25.5101 10.916 25.4625 10.9565 25.5055 11.0684C25.5249 11.1187 25.5166 11.1856 25.547 11.2246C25.5641 11.248 25.5859 11.2679 25.6111 11.2822C25.6362 11.2966 25.664 11.3048 25.6929 11.3076C25.736 11.3032 25.7726 11.2344 25.7964 11.21Z" fill="white"/>
<path d="M2.73352 12.8389L1.73242 12.749C1.74827 12.5533 1.77468 12.3579 1.81165 12.1651C1.82819 12.1269 1.85256 12.0926 1.88318 12.0645C1.91379 12.0363 1.94998 12.0152 1.98938 12.002C2.0366 11.9884 2.0871 11.9919 2.13208 12.0117C2.17706 12.0315 2.21373 12.0664 2.2356 12.1104C2.32418 12.0543 2.42097 12.0127 2.52246 11.9863C2.55715 11.986 2.59155 11.9924 2.62354 12.0059C2.65552 12.0193 2.68439 12.0394 2.70837 12.0645C2.73236 12.0895 2.75091 12.1188 2.76294 12.1514C2.77497 12.1839 2.78012 12.2193 2.7782 12.2539C2.77373 12.4443 2.75011 12.6341 2.73352 12.8389ZM2.31165 12.4727L2.2887 12.4961C2.32379 12.5398 2.35303 12.6116 2.39526 12.6201C2.46002 12.6333 2.58152 12.6206 2.59424 12.5869C2.62578 12.4919 2.63364 12.3908 2.61707 12.292C2.60779 12.2641 2.59156 12.2387 2.56995 12.2188C2.54833 12.1988 2.52198 12.1848 2.49341 12.1778C2.4641 12.1819 2.43615 12.1925 2.41162 12.209C2.38709 12.2255 2.3667 12.2478 2.35193 12.2735C2.32805 12.3372 2.31445 12.4047 2.31165 12.4727ZM1.89685 12.5742C1.95816 12.5868 2.02036 12.5939 2.08289 12.5967C2.11034 12.5957 2.15669 12.5696 2.16003 12.5488C2.17824 12.4642 2.18296 12.3771 2.17395 12.291C2.16666 12.2468 2.10169 12.1792 2.06519 12.1807C2.03676 12.1854 2.00996 12.1966 1.98694 12.2139C1.96392 12.2312 1.94547 12.2543 1.93311 12.2803C1.91137 12.3769 1.89918 12.4753 1.89685 12.5742Z" fill="white"/>
<path d="M4.15784 7.81641L3.28223 7.31152C3.38302 7.13736 3.49261 6.96876 3.61047 6.80566C3.63605 6.77586 3.66898 6.75318 3.70605 6.74023C3.74313 6.72729 3.78297 6.72403 3.82153 6.73145C3.8601 6.73886 3.89603 6.75645 3.92566 6.78223C3.95529 6.808 3.97754 6.84174 3.99023 6.87891C4.00259 6.90745 4.01058 6.93736 4.02051 6.9668C4.08519 6.94352 4.1525 6.92825 4.22095 6.92187C4.26339 6.92481 4.30449 6.93782 4.34082 6.95996C4.37715 6.9821 4.40763 7.01342 4.42969 7.0498C4.45175 7.08618 4.46481 7.12747 4.46765 7.16992C4.47049 7.21237 4.46306 7.25397 4.44604 7.29297C4.36152 7.46897 4.25815 7.63627 4.15784 7.81641ZM4.12915 7.56641C4.18595 7.48078 4.23535 7.38994 4.27673 7.2959C4.28449 7.26782 4.28522 7.23838 4.27881 7.20996C4.27239 7.18154 4.25906 7.15484 4.23999 7.13281C4.21273 7.11764 4.18208 7.10979 4.15088 7.10937C4.11968 7.10896 4.08881 7.11641 4.06116 7.13086C3.98239 7.21125 3.92404 7.30944 3.89087 7.41699C3.88294 7.44679 4.0209 7.51496 4.09229 7.56543L4.12915 7.56641ZM3.50806 7.22461C3.56289 7.25908 3.60573 7.28323 3.64587 7.31152C3.70905 7.35604 3.75255 7.34508 3.78528 7.27344C3.82104 7.22097 3.84946 7.16465 3.86975 7.10449C3.87387 7.07451 3.87172 7.04371 3.86328 7.01465C3.85484 6.98558 3.84034 6.95866 3.8208 6.93555C3.797 6.91455 3.69675 6.94177 3.66382 6.97754C3.60411 7.05481 3.55198 7.1374 3.50806 7.22461Z" fill="white"/>
<path d="M24.8007 10.5596L24.7577 10.4023L25.3567 10.2227L25.3591 10.1875C25.1658 10.1315 24.9725 10.0757 24.7792 10.0195C24.6274 9.97529 24.6276 9.97473 24.5962 9.79492L25.5414 9.52637L25.5918 9.68457L24.9794 9.8623L24.9768 9.90039C25.1746 9.95539 25.3703 10.02 25.5709 10.0615C25.5977 10.0638 25.6237 10.0714 25.6475 10.084C25.6712 10.0966 25.6923 10.1139 25.7092 10.1348C25.7262 10.1557 25.7386 10.1802 25.746 10.2061C25.7533 10.2319 25.7555 10.2585 25.7521 10.2852L24.8007 10.5596Z" fill="white"/>
<path d="M6.88684 3.32227L7.49231 4.09473L7.36609 4.19922L6.97021 3.70898L6.94104 3.72363C6.96136 3.91709 6.97131 4.11175 7.00549 4.30273C7.01537 4.3299 7.01953 4.35885 7.0177 4.3877C7.01587 4.41654 7.0081 4.445 6.99487 4.4707C6.98164 4.4964 6.96321 4.51886 6.9408 4.53711C6.91838 4.55536 6.89247 4.56843 6.86462 4.57617L6.26001 3.80371L6.38574 3.69531L6.7771 4.18652L6.80786 4.17871C6.80982 4.13778 6.80964 4.09658 6.80725 4.05566C6.79616 3.896 6.77643 3.73664 6.74817 3.5791C6.73869 3.55315 6.73483 3.5256 6.73682 3.49805C6.7388 3.47049 6.74666 3.44425 6.75977 3.41992C6.77287 3.3956 6.79095 3.37425 6.81287 3.35742C6.83478 3.3406 6.85996 3.32864 6.88684 3.32227Z" fill="white"/>
<path d="M2.30403 16.9307L3.23689 16.626L3.29121 16.7822L2.69648 16.9805L2.69526 17.0166C2.89114 17.0651 3.08566 17.1202 3.2834 17.1592C3.31065 17.1602 3.33733 17.1669 3.36189 17.1787C3.38645 17.1906 3.40835 17.2068 3.4261 17.2275C3.44385 17.2482 3.45708 17.2727 3.46504 17.2988C3.473 17.3249 3.47553 17.3528 3.47236 17.3799L2.5395 17.6836L2.48274 17.5293L3.08613 17.3262L3.08442 17.2891C2.88401 17.2399 2.68521 17.1818 2.48262 17.1445C2.4564 17.1434 2.43071 17.1366 2.40718 17.125C2.38365 17.1134 2.36283 17.0973 2.34602 17.0771C2.32921 17.057 2.31675 17.033 2.30952 17.0078C2.3023 16.9826 2.30043 16.9567 2.30403 16.9307Z" fill="white"/>
<path d="M25.9406 15.2695C25.9569 15.3953 25.9325 15.4493 25.8018 15.418C25.6292 15.3763 25.4523 15.3557 25.2748 15.3555C25.3701 15.4421 25.4648 15.5286 25.5609 15.6143C25.6444 15.6784 25.7229 15.7492 25.7957 15.8252C25.8243 15.8776 25.8326 15.9389 25.8192 15.9971C25.8168 16.0138 25.7358 16.034 25.6949 16.0273C25.4112 15.9812 25.1285 15.929 24.832 15.876L24.8668 15.7148L25.5095 15.8223C25.4886 15.7911 25.4656 15.7615 25.4407 15.7334C25.3057 15.6095 25.1751 15.4793 25.0315 15.3662C25.01 15.3528 24.9917 15.3354 24.9775 15.3145C24.9634 15.2935 24.9539 15.2691 24.9495 15.2441C24.9451 15.2192 24.9459 15.1945 24.952 15.1699C24.9581 15.1454 24.9693 15.1215 24.9849 15.1016L25.9406 15.2695Z" fill="white"/>
<path d="M23.7478 6.05078L22.9801 6.67383L22.8787 6.54492L23.3622 6.14258L23.3469 6.1123C23.1454 6.13777 22.9427 6.15576 22.7428 6.19043C22.7173 6.19851 22.6904 6.20195 22.6638 6.19922C22.6372 6.19649 22.6114 6.1879 22.588 6.1748C22.5647 6.16171 22.5443 6.14434 22.5281 6.12305C22.5119 6.10175 22.5001 6.07677 22.4937 6.05078L23.2562 5.43555L23.3647 5.55859L22.8715 5.96484L22.8878 5.99707C23.0933 5.97166 23.3009 5.95732 23.5034 5.91699C23.5282 5.90888 23.5544 5.90578 23.5804 5.9082C23.6064 5.91063 23.6318 5.91909 23.6547 5.93164C23.6776 5.9442 23.6976 5.96083 23.7136 5.98145C23.7296 6.00206 23.7413 6.02549 23.7478 6.05078Z" fill="white"/>
<path d="M5.36084 4.59082L5.48608 4.48438L5.92981 4.94824L5.95776 4.93066C5.91486 4.72183 5.87554 4.51237 5.82764 4.30469C5.81861 4.28102 5.8147 4.25575 5.81628 4.23047C5.81786 4.20519 5.82489 4.18056 5.83679 4.1582C5.8487 4.13585 5.86516 4.11698 5.88525 4.10156C5.90535 4.08614 5.92857 4.07505 5.95325 4.06934L6.62964 4.79102L6.48962 4.88379L6.07166 4.44434L6.03918 4.45898C6.06469 4.5947 6.09028 4.7305 6.11584 4.86621C6.12349 4.92528 6.13548 4.98375 6.15186 5.04102C6.16459 5.06614 6.17172 5.09294 6.17261 5.12109C6.17349 5.14925 6.16811 5.17725 6.15698 5.20312C6.14585 5.229 6.1292 5.25277 6.10815 5.27148C6.08711 5.2902 6.06228 5.30349 6.03528 5.31152L5.36084 4.59082Z" fill="white"/>
<path d="M9.72844 2.89305C9.58782 2.88037 9.45761 2.81343 9.3654 2.70652C9.27318 2.59961 9.2262 2.46076 9.2343 2.31981C9.23614 2.25553 9.25074 2.19283 9.27726 2.13426C9.30379 2.07568 9.34163 2.02277 9.38871 1.97899C9.4358 1.9352 9.49121 1.90158 9.55156 1.87938C9.6119 1.85717 9.67604 1.84726 9.74028 1.85008C9.87839 1.86307 10.0064 1.9279 10.0984 2.03172C10.1904 2.13554 10.2396 2.27 10.2359 2.40867C10.2357 2.4742 10.2223 2.53889 10.1965 2.5991C10.1706 2.65931 10.1328 2.71402 10.0854 2.75926C10.038 2.80449 9.98192 2.83976 9.92057 2.86277C9.85922 2.88578 9.79389 2.89595 9.72844 2.89305ZM10.048 2.44871C10.057 2.34768 10.0282 2.24663 9.96733 2.16551C9.90644 2.08438 9.8177 2.02887 9.71818 2.00926C9.68027 2.0074 9.64243 2.01297 9.60673 2.02586C9.57103 2.03875 9.53816 2.05881 9.51017 2.08445C9.48219 2.1101 9.45959 2.14083 9.44365 2.17527C9.4277 2.20972 9.41873 2.24672 9.41728 2.28465C9.40893 2.50542 9.5808 2.73224 9.75737 2.73387C9.83377 2.73434 9.90723 2.70541 9.96171 2.65184C10.0162 2.59826 10.0472 2.52512 10.048 2.44871Z" fill="white"/>
<path d="M3.32825 7.75782C3.4689 7.75695 3.60467 7.80973 3.70789 7.90528C3.8111 8.00084 3.87407 8.13217 3.88403 8.27247C3.8835 8.40214 3.83207 8.52614 3.74072 8.61817C3.64938 8.71021 3.52541 8.76315 3.39575 8.76466C3.25489 8.76598 3.11888 8.71302 3.01562 8.6172C2.91237 8.52138 2.84976 8.3896 2.84058 8.24903C2.84091 8.11947 2.89222 7.99527 2.98352 7.90333C3.07482 7.81139 3.19869 7.75907 3.32825 7.75782ZM3.28723 7.94239C3.24938 7.94207 3.21178 7.94854 3.17676 7.9629C3.14173 7.97726 3.10998 7.99859 3.08325 8.0254C3.05652 8.05221 3.03537 8.08408 3.02112 8.11915C3.00686 8.15422 2.9998 8.19165 3.00024 8.2295C2.99644 8.40133 3.2088 8.57508 3.427 8.57814C3.50343 8.58006 3.57749 8.55142 3.63318 8.49903C3.68886 8.44665 3.72174 8.37426 3.72449 8.29786C3.72879 8.12429 3.50526 7.94303 3.28723 7.94239Z" fill="white"/>
<path d="M20.1511 3.26172C20.2457 3.32895 20.3435 3.39181 20.4443 3.44922C20.4651 3.45303 20.4863 3.45176 20.5063 3.44531C20.5264 3.43886 20.5446 3.42728 20.5592 3.41211C20.618 3.33049 20.6723 3.24579 20.7218 3.1582L20.8788 3.24609L20.3496 4.09668L20.1985 3.99707C20.2628 3.89334 20.3175 3.79921 20.3785 3.70898C20.4206 3.6468 20.42 3.6045 20.3492 3.56543C20.258 3.51504 20.1703 3.45789 20.0676 3.39551L19.8267 3.76953L19.6733 3.67676L20.2051 2.82617L20.3556 2.9248L20.1511 3.26172Z" fill="white"/>
<path d="M1.79468 14.4736L1.77441 14.3096L2.74243 14.1914C2.80583 14.3613 2.80163 14.3688 2.64709 14.3838C2.33137 14.4145 2.33556 14.4133 2.37354 14.7285C2.3857 14.8295 2.42912 14.8497 2.51758 14.8359C2.61658 14.8205 2.71687 14.8127 2.83264 14.7998L2.86121 14.9766L1.87085 15.0977L1.84973 14.9209C1.95565 14.9073 2.05376 14.892 2.15247 14.8828C2.22331 14.8762 2.25103 14.8446 2.23584 14.7754L2.23389 14.7617C2.20265 14.455 2.20263 14.4545 1.90076 14.4727C1.86947 14.4746 1.83789 14.4736 1.79468 14.4736Z" fill="white"/>
<path d="M24.8127 8.7002C24.8111 8.71069 24.8104 8.72082 24.8107 8.73145C24.9158 9.09824 24.9157 9.09818 25.2695 8.97949C25.2894 8.97447 25.3095 8.9712 25.3298 8.96875L25.396 9.12207L24.4684 9.49707L24.4044 9.33301L24.8119 9.15527L24.6562 8.76562L24.2437 8.92285L24.168 8.76172L25.1003 8.38477L25.1625 8.55078L24.8127 8.7002Z" fill="white"/>
<path d="M3.04358 18.7949L2.9696 18.6338C3.0726 18.5855 3.16885 18.5456 3.25928 18.4951C3.28521 18.4806 3.31563 18.4276 3.3075 18.4062C3.2658 18.2969 3.21216 18.1923 3.15869 18.0771L2.79309 18.2314L2.71924 18.0693L3.63062 17.6621L3.70544 17.8242L3.30005 18.0117C3.35105 18.1277 3.39356 18.2381 3.44934 18.3408C3.46113 18.3625 3.52713 18.3735 3.55835 18.3623C3.6651 18.324 3.76749 18.2737 3.87891 18.2246L3.95923 18.3838L3.04358 18.7949Z" fill="white"/>
<path d="M18.9955 3.1377L19.4978 3.3877L19.4404 3.52246L18.7617 3.18945L19.199 2.29199L19.8446 2.60645C19.8333 2.72394 19.7896 2.7525 19.6848 2.69434C19.5653 2.62806 19.4393 2.57361 19.3032 2.50781L19.1875 2.72754L19.6465 2.95703L19.5842 3.08691C19.467 3.02974 19.3551 2.98132 19.2494 2.92188C19.1485 2.86518 19.0898 2.88555 19.0574 2.99707C19.0397 3.04526 19.019 3.09207 18.9955 3.1377Z" fill="white"/>
<path d="M21.3512 3.61133L21.1084 3.93164L21.4385 4.19043L21.6991 3.88379L21.8364 3.98926L21.2209 4.77539L21.0812 4.66699L21.3475 4.3125C21.251 4.2355 21.1664 4.15949 21.0719 4.09863C21.0513 4.09367 21.0299 4.09338 21.0094 4.09863C20.9889 4.10388 20.97 4.1137 20.9543 4.12793C20.8794 4.20727 20.8161 4.29824 20.7386 4.39648L20.5923 4.29004L21.2075 3.50488L21.3512 3.61133Z" fill="white"/>
<path d="M2.72449 13.8701H1.73633V13.1641H1.87939C1.87939 13.3097 1.88386 13.4511 1.87769 13.5918C1.87359 13.6855 1.91269 13.7099 1.99915 13.707C2.08244 13.7042 2.14332 13.6967 2.1344 13.5889C2.1265 13.4933 2.13528 13.3955 2.12842 13.2998C2.12113 13.1984 2.15954 13.1679 2.27576 13.2021C2.27576 13.3323 2.27849 13.4642 2.27502 13.5957C2.27162 13.7245 2.36338 13.6969 2.43701 13.6982C2.51064 13.6996 2.58945 13.709 2.58374 13.5928C2.57744 13.4648 2.57387 13.3358 2.57983 13.208C2.58124 13.1777 2.62527 13.1494 2.64966 13.1201C2.67466 13.1451 2.72065 13.1697 2.72131 13.1953C2.72703 13.4136 2.72449 13.6315 2.72449 13.8701Z" fill="white"/>
<path d="M25.6638 12.1162L25.6967 12.6006L25.5557 12.6201C25.5427 12.4791 25.5246 12.3522 25.5209 12.2256C25.5155 12.0435 25.3888 12.1402 25.3118 12.1309C25.2117 12.1188 25.2049 12.1793 25.2157 12.2617C25.234 12.4016 25.2413 12.5427 25.2545 12.6982L25.1095 12.7148L25.042 11.9707L26.0377 11.8818L26.1033 12.6006L25.9613 12.6318C25.9494 12.5051 25.9364 12.3888 25.9281 12.2725C25.9124 12.0533 25.8901 12.0386 25.6638 12.1162Z" fill="white"/>
<path d="M25.3854 17.4443L25.1263 18.1201L24.9869 18.0791C25.0316 17.9593 25.0704 17.849 25.1139 17.7402C25.1941 17.5398 25.1811 17.5186 24.9416 17.4922L24.7616 17.9424L24.6271 17.8955L24.8053 17.4209L24.5261 17.3076L24.3198 17.8301C24.2494 17.8123 24.1712 17.8154 24.2096 17.7139C24.2871 17.5089 24.3672 17.3048 24.4521 17.085L25.3854 17.4443Z" fill="white"/>
<path d="M2.79501 11.9033C2.49126 11.7122 2.20835 11.5381 1.93172 11.3545C1.90408 11.3361 1.90048 11.2574 1.9117 11.2129C1.91856 11.192 1.93019 11.1729 1.94552 11.1572C1.96085 11.1415 1.97952 11.1295 2.00021 11.1221C2.31677 11.0554 2.63496 10.9959 2.96322 10.9326C2.97385 11.0545 2.96406 11.1469 2.81393 11.1465C2.79567 11.1443 2.77717 11.1455 2.75973 11.1514C2.74229 11.1572 2.72644 11.1669 2.71322 11.1797C2.69999 11.1925 2.68975 11.2084 2.68331 11.2256C2.67687 11.2428 2.67438 11.261 2.67599 11.2793C2.67348 11.3204 2.66489 11.3608 2.6506 11.3994C2.60622 11.5221 2.61886 11.6157 2.75533 11.6729C2.87248 11.7218 2.79744 11.806 2.79501 11.9033ZM2.15401 11.2607L2.14242 11.3027L2.48287 11.5L2.53365 11.2002L2.15401 11.2607Z" fill="white"/>
<path d="M14.5642 2.0791C14.4271 2.11756 14.3443 2.08712 14.3197 1.95215C14.3182 1.93616 14.3133 1.92118 14.3053 1.90723C14.2973 1.89328 14.2864 1.88055 14.2734 1.87109C14.2604 1.86164 14.2457 1.85583 14.23 1.85254C14.2143 1.84925 14.1979 1.84908 14.1823 1.85254C14.1321 1.85705 14.0816 1.85569 14.0317 1.84863C13.9099 1.82863 13.8307 1.86178 13.8036 1.99414C13.7791 2.11366 13.6874 2.08151 13.583 2.07129C13.6286 1.95729 13.6692 1.85383 13.7113 1.75098C13.7908 1.55666 13.8666 1.36033 13.9546 1.16992C13.9679 1.1476 13.9863 1.12933 14.0082 1.11523C14.03 1.10113 14.0549 1.09183 14.0807 1.08887C14.1069 1.09037 14.1324 1.09805 14.1552 1.11133C14.1779 1.1246 14.1971 1.1429 14.2113 1.16504C14.3337 1.46431 14.4455 1.76761 14.5642 2.0791ZM14.103 1.33691L14.0635 1.32422L13.9207 1.69629H14.2252L14.103 1.33691Z" fill="white"/>
<path d="M22.1689 4.26953L22.324 4.40527L22.0197 4.67969C22.1232 4.80118 22.2146 4.90029 22.2963 5.00684C22.3303 5.05076 22.3492 5.1046 22.3502 5.16016C22.3512 5.21572 22.3342 5.27034 22.3018 5.31543C22.276 5.36464 22.2353 5.40429 22.1854 5.42871C22.1356 5.45313 22.0791 5.46102 22.0244 5.45117C21.9664 5.44222 21.9121 5.41771 21.8672 5.37988C21.7317 5.25821 21.604 5.12714 21.4902 5.0166L22.1689 4.26953ZM21.6771 5.03223C21.7496 5.10301 21.8294 5.16567 21.9152 5.21973C21.9471 5.23578 21.9821 5.24528 22.0178 5.24707C22.0536 5.24886 22.0894 5.24324 22.1228 5.23047C22.2032 5.18469 22.181 5.09409 22.1251 5.02832C22.0615 4.9534 21.9907 4.88427 21.9161 4.80566L21.6771 5.03223Z" fill="white"/>
<path d="M26.1406 13.0049C26.1304 13.202 26.1282 13.3745 26.1104 13.5459C26.0967 13.6765 25.9744 13.7564 25.8164 13.7568C25.7471 13.7618 25.6786 13.7403 25.6241 13.6973C25.5697 13.6542 25.5332 13.5929 25.522 13.5244C25.5046 13.4136 25.5404 13.259 25.4792 13.2002C25.4168 13.1401 25.2649 13.1735 25.1421 13.165V13.0049H26.1406ZM25.8114 13.1816C25.6958 13.1538 25.6589 13.2068 25.6639 13.3262C25.6712 13.4973 25.7069 13.5665 25.8152 13.5693C25.9271 13.5723 25.9725 13.4884 25.9835 13.3066C25.992 13.1679 25.9083 13.1767 25.8114 13.1816Z" fill="white"/>
<path d="M2.69836 10.4192L3.06262 10.5344L3.01733 10.7043L2.05078 10.428C2.10245 10.2564 2.14114 10.092 2.20154 9.93676C2.2154 9.90122 2.23646 9.86901 2.26343 9.84203C2.2904 9.81505 2.32262 9.79439 2.35815 9.78051C2.39369 9.76663 2.43173 9.76039 2.46985 9.76195C2.50796 9.76351 2.54531 9.77256 2.57959 9.7893C2.64786 9.81074 2.70549 9.85703 2.74097 9.91918C2.77644 9.98133 2.78713 10.0546 2.77087 10.1243C2.75143 10.2174 2.72558 10.3098 2.69836 10.4192ZM2.63635 10.1545C2.61352 10.0336 2.57162 9.96753 2.46484 9.9602C2.36434 9.9533 2.2502 10.1001 2.26672 10.2424C2.28123 10.3675 2.42416 10.3641 2.49036 10.3518C2.54914 10.3409 2.58846 10.2243 2.63635 10.1545Z" fill="white"/>
<path d="M14.9658 2.11914L14.7886 2.10938L14.9105 1.10938C15.096 1.13728 15.2686 1.15307 15.436 1.19141C15.5017 1.20734 15.5586 1.24767 15.5948 1.30469C15.6311 1.36171 15.6438 1.43085 15.6304 1.49707C15.6295 1.56681 15.6022 1.63325 15.554 1.68359C15.5057 1.73394 15.44 1.76471 15.3704 1.76855C15.2834 1.77139 15.1964 1.76649 15.1101 1.75488C15.0396 1.74738 15.0096 1.77465 15.0031 1.84375C14.9949 1.92976 14.9802 2.01507 14.9658 2.11914ZM15.0408 1.59961C15.1283 1.61505 15.2174 1.61818 15.3058 1.60938C15.3356 1.59953 15.3625 1.58302 15.3844 1.56055C15.4063 1.53807 15.4225 1.5105 15.4315 1.48047C15.4289 1.44921 15.4187 1.41903 15.4019 1.39258C15.385 1.36613 15.362 1.34367 15.3347 1.32812C15.2488 1.30214 15.1598 1.28851 15.0701 1.28613L15.0408 1.59961Z" fill="white"/>
<path d="M5.8595 5.47656C5.79441 5.61832 5.71968 5.6614 5.59485 5.61328C5.5087 5.58243 5.41951 5.56134 5.32874 5.5498C5.27197 5.55209 5.21564 5.56131 5.16138 5.57812L5.51074 5.89551L5.39929 6.0332L4.64795 5.38086L4.76123 5.24609L5.11523 5.53906C5.12126 5.47599 5.12043 5.4125 5.11267 5.34961C5.09214 5.28897 5.0657 5.23123 5.03369 5.17578C5.003 5.11806 4.99477 5.05073 5.01062 4.9873C5.02647 4.92388 5.06527 4.86853 5.11951 4.83203C5.14467 4.86926 5.18917 4.91573 5.18164 4.92676C5.09303 5.05639 5.18764 5.15153 5.23364 5.25684C5.2467 5.28963 5.25748 5.32317 5.26599 5.35742L5.8595 5.47656Z" fill="white"/>
<path d="M11.2289 1.64805L11.1016 1.72032C11.0337 1.6804 10.9612 1.64938 10.8855 1.62754C10.8535 1.62245 10.8208 1.62461 10.7896 1.6334C10.7584 1.64219 10.7296 1.65727 10.705 1.67832C10.6804 1.69937 10.6606 1.72604 10.6471 1.75547C10.6336 1.7849 10.6266 1.81684 10.6266 1.84922C10.6326 1.96684 10.6572 2.08299 10.6994 2.19297C10.7185 2.24346 10.754 2.28531 10.8003 2.31309C10.8466 2.34087 10.9008 2.35219 10.9544 2.34532C11.0079 2.33844 11.0576 2.31456 11.0954 2.27598C11.1331 2.2374 11.1568 2.18708 11.1625 2.1334C11.166 2.11587 11.1707 2.0985 11.1767 2.08164H11.3255C11.3912 2.35045 11.0822 2.55191 10.8073 2.49082C10.6793 2.4441 10.5723 2.35369 10.5055 2.23496C10.4387 2.11624 10.4165 1.97699 10.443 1.84336C10.4609 1.73136 10.5204 1.63013 10.6097 1.56016C10.6989 1.49019 10.8113 1.457 10.9243 1.46641C10.9868 1.46644 11.0481 1.48318 11.1017 1.51524C11.1553 1.5473 11.1993 1.59303 11.2289 1.64805Z" fill="white"/>
<path d="M16.4842 2.01577L16.6225 2.09194C16.6071 2.13923 16.5823 2.1825 16.5495 2.21987C16.5167 2.25723 16.4766 2.28738 16.4317 2.30874C16.3868 2.33009 16.3381 2.34202 16.2884 2.34389C16.2387 2.34576 16.1891 2.3374 16.1427 2.31948C16.0307 2.29087 15.934 2.22028 15.8727 2.12221C15.8114 2.02415 15.7903 1.90635 15.8138 1.79311C15.8522 1.49093 16.0268 1.30636 16.2753 1.30483C16.3763 1.29433 16.4774 1.32356 16.5568 1.38686C16.6362 1.45016 16.6875 1.54192 16.6997 1.64272C16.6064 1.67532 16.5409 1.67955 16.4862 1.56362C16.4664 1.52999 16.4383 1.50121 16.4046 1.48159C16.3708 1.46197 16.3326 1.4519 16.2936 1.45131C16.2546 1.45073 16.2161 1.46006 16.1818 1.47866C16.1475 1.49725 16.1185 1.52474 16.0977 1.55776C16.0404 1.68482 16.0088 1.82173 16.0049 1.96108C16.0034 2.01264 16.0206 2.06292 16.0535 2.10268C16.0864 2.14244 16.1326 2.16864 16.1835 2.1769C16.2327 2.19055 16.285 2.18793 16.3321 2.16811C16.3791 2.14829 16.4181 2.11225 16.4427 2.06752C16.4525 2.05245 16.465 2.03984 16.4842 2.01577Z" fill="white"/>
<path d="M4.83341 6.18092L4.96683 6.08619C5.00216 6.12465 5.02949 6.16985 5.04715 6.219C5.06481 6.26815 5.07239 6.32017 5.06961 6.37232C5.06684 6.42447 5.05369 6.47572 5.03091 6.52271C5.00814 6.56971 4.97625 6.61126 4.93704 6.64576C4.84825 6.73088 4.72959 6.77786 4.6066 6.77662C4.4836 6.77538 4.36603 6.72679 4.27896 6.6399C4.17762 6.57892 4.10399 6.48074 4.07352 6.36646C4.04304 6.25218 4.05811 6.12996 4.11563 6.02662C4.15351 5.93695 4.22504 5.86593 4.31485 5.82838C4.40466 5.79082 4.50554 5.79041 4.59598 5.82642C4.57714 5.91469 4.5549 5.97382 4.43362 5.97584C4.39123 5.97923 4.35052 5.99421 4.31583 6.01881C4.28113 6.0434 4.25372 6.07661 4.23648 6.11549C4.21924 6.15436 4.21287 6.19728 4.21793 6.23951C4.22299 6.28174 4.23935 6.32202 4.26529 6.35572C4.34598 6.44784 4.44282 6.52402 4.55106 6.58131C4.5975 6.60832 4.6521 6.6178 4.70487 6.60767C4.75763 6.59755 4.80502 6.5689 4.83817 6.52662C4.87443 6.49065 4.89698 6.44269 4.90189 6.39185C4.90679 6.34101 4.89374 6.29054 4.86502 6.2483C4.85407 6.22887 4.84591 6.2078 4.83341 6.18092Z" fill="white"/>
<path d="M25.7857 14.8529C25.7591 14.7621 25.7483 14.7009 25.8451 14.64C25.8766 14.6169 25.9019 14.5855 25.9187 14.5502C25.9355 14.5149 25.9433 14.476 25.9414 14.4369C25.9396 14.3979 25.928 14.3601 25.9079 14.3266C25.8877 14.293 25.8596 14.2655 25.8261 14.2455C25.7554 14.2022 25.6755 14.1763 25.5929 14.1703C25.5103 14.1643 25.4275 14.1777 25.3513 14.2104C25.3118 14.2265 25.2775 14.2532 25.2521 14.2875C25.2267 14.3218 25.2112 14.3632 25.2073 14.4057C25.2034 14.4482 25.2112 14.4903 25.2299 14.5287C25.2486 14.5671 25.2775 14.5994 25.3134 14.6225C25.3387 14.6408 25.3668 14.6556 25.4025 14.6771L25.338 14.8256C25.2885 14.8133 25.242 14.7908 25.2012 14.7602C25.1604 14.7295 25.1261 14.6911 25.1005 14.6469C25.0749 14.6027 25.0584 14.554 25.052 14.5033C25.0457 14.4527 25.0496 14.4011 25.0635 14.352C25.0859 14.2384 25.1508 14.1378 25.245 14.0707C25.3393 14.0036 25.4556 13.9747 25.5702 13.9906C25.8855 14.0075 26.068 14.1563 26.0874 14.4115C26.0968 14.4604 26.0963 14.5103 26.0862 14.559C26.0761 14.6077 26.0565 14.6536 26.0285 14.6947C26.0004 14.7358 25.9646 14.7711 25.9229 14.7982C25.8812 14.8254 25.8346 14.8438 25.7857 14.8529Z" fill="white"/>
<path d="M11.6855 2.206C11.9349 2.12186 11.9564 2.0537 11.8215 1.87202C11.6947 1.70118 11.5664 1.53087 11.4355 1.35639C11.5619 1.29382 11.6413 1.31204 11.7063 1.42866C11.7724 1.54716 11.8581 1.65383 11.9611 1.80366C11.9964 1.63216 12.0303 1.49924 12.0497 1.36421C12.0665 1.24662 12.1185 1.19368 12.2639 1.2226C12.1751 1.54523 12.0961 1.86798 11.9912 2.18159C11.9713 2.24109 11.8501 2.26983 11.771 2.30171C11.7593 2.30639 11.7221 2.2482 11.6855 2.206Z" fill="white"/>
<path d="M23.7559 7.9248L23.8607 7.87109C23.8747 7.8902 23.8856 7.90352 23.8953 7.91797C23.985 8.05176 24.0784 8.05704 24.1719 7.92969C24.2908 7.76769 24.4076 7.60381 24.526 7.44141C24.5439 7.41691 24.5651 7.39486 24.5911 7.36426L24.6818 7.53418L24.3361 7.96777L24.3495 8C24.4826 7.98607 24.6167 7.9779 24.7488 7.95703C24.8629 7.93903 24.9349 7.96858 24.9559 8.10547C24.8354 8.11442 24.7156 8.12417 24.5957 8.13184C24.4315 8.14233 24.2673 8.15369 24.1029 8.16016C23.8994 8.16818 23.8305 8.12212 23.7559 7.9248Z" fill="white"/>
<path d="M24.6399 19.127L24.5216 19.0596C24.5228 19.0429 24.5258 19.0259 24.5303 19.0098C24.6314 18.7786 24.6311 18.78 24.3977 18.668C24.229 18.587 24.0615 18.5032 23.8799 18.4141L23.9514 18.252C24.1696 18.356 24.3836 18.4449 24.5847 18.5576C24.7087 18.6271 24.7547 18.5831 24.7942 18.4756C24.8115 18.4353 24.8309 18.3957 24.8524 18.3574L24.988 18.4102L24.6399 19.127Z" fill="white"/>
<path d="M17.2157 2.58008L17.0404 2.54492L17.2577 1.7207L16.9731 1.63477L17.0076 1.49707L17.759 1.69824L17.7325 1.83984L17.4368 1.77051L17.2157 2.58008Z" fill="white"/>
<path d="M3.43152 9.3418L3.37854 9.51074L2.57544 9.23828L2.46924 9.51855L2.33398 9.47168L2.58655 8.73633L2.72217 8.77051L2.63953 9.06152L3.43152 9.3418Z" fill="white"/>
<path d="M25.587 16.3242L25.7142 16.3643L25.5153 17.1123L25.3794 17.0811L25.4404 16.7891L24.6328 16.5693L24.6693 16.3945C24.876 16.4482 25.073 16.4978 25.269 16.5508C25.4833 16.6087 25.4827 16.6095 25.551 16.4062C25.5596 16.3808 25.5725 16.3571 25.587 16.3242Z" fill="white"/>
<path d="M8.29517 2.45605L8.88525 2.16992L8.96277 2.28809L8.52698 2.51074L8.89587 3.27148L8.73755 3.35938L8.29517 2.45605Z" fill="white"/>
<path d="M22.8607 4.97559L22.9852 5.10938L22.941 5.08105L22.2831 5.82715L22.1768 5.71387L22.8607 4.97559Z" fill="white"/>
<path d="M6.26538 3.45898C6.45062 3.49668 6.54343 3.42574 6.53943 3.2373C6.55851 3.25008 6.57424 3.26693 6.58521 3.28711C6.59617 3.30729 6.60197 3.33055 6.60229 3.35352C6.60262 3.37648 6.59742 3.39846 6.58704 3.41895C6.57665 3.43943 6.56144 3.45739 6.54272 3.4707C6.45701 3.56179 6.37516 3.56497 6.26538 3.45898Z" fill="white"/>
<path d="M23.611 5.40332C23.5833 5.60041 23.6172 5.71928 23.8157 5.70117C23.8071 5.71948 23.794 5.73505 23.7777 5.74707C23.7613 5.75909 23.7423 5.76666 23.7222 5.76953C23.7022 5.7724 23.6818 5.77064 23.6628 5.76367C23.6438 5.7567 23.6267 5.74464 23.6132 5.72949C23.5103 5.65389 23.4985 5.54862 23.611 5.40332Z" fill="white"/>
<path d="M4.6499 9.66309C4.8137 9.79539 4.95401 9.90613 5.09082 10.0205C5.642 10.4783 6.32556 10.7467 7.04089 10.7871C7.68897 10.8342 8.34073 10.8424 8.99097 10.8457C9.72924 10.8303 10.4666 10.9055 11.1866 11.0693C11.9862 11.2679 12.7255 11.6571 13.3407 12.2051C13.4365 12.2902 13.5347 12.3743 13.6219 12.4678C13.6924 12.5432 13.7382 12.5301 13.7968 12.457C14.0676 12.1274 14.3809 11.8352 14.7285 11.5879C15.3039 11.1914 15.961 10.9294 16.6514 10.8213C17.3458 10.7232 18.0481 10.6924 18.7485 10.7285C19.3895 10.7291 20.0334 10.7359 20.6709 10.6807C21.0825 10.6585 21.4847 10.5481 21.8502 10.3574C22.2157 10.1668 22.5362 9.90009 22.7899 9.5752C22.8628 9.48164 22.951 9.40031 23.0325 9.31348C23.0441 9.30468 23.0565 9.29663 23.0696 9.29004C23.0696 9.3226 23.0714 9.34587 23.0692 9.36914C22.9548 10.5822 22.8401 11.7958 22.725 13.0088C22.6018 14.29 22.4746 15.5704 22.3507 16.8516C22.2921 17.4579 22.2386 18.0648 22.1774 18.6709C22.1673 18.7265 22.1389 18.7768 22.0968 18.8145C21.7194 19.1546 21.2481 19.3736 20.7445 19.4414C20.2205 19.5217 19.6906 19.5702 19.1616 19.6094C18.3625 19.6685 17.5597 19.6845 16.7626 19.7617C15.9524 19.8078 15.1699 20.0723 14.498 20.5273C14.267 20.7124 14.0456 20.9085 13.8347 21.1162C13.7284 21.0274 13.6085 20.9232 13.4843 20.8242C12.872 20.3446 12.1506 20.0238 11.3843 19.8906C10.6841 19.7716 9.97555 19.7089 9.26538 19.7031C8.50493 19.7119 7.74554 19.6449 6.99841 19.5029C6.57582 19.4148 6.17406 19.246 5.81531 19.0059C5.7631 18.9666 5.7277 18.909 5.71619 18.8447C5.53969 17.3759 5.36649 15.9071 5.19653 14.4375C5.06267 13.2864 4.93023 12.1348 4.79919 10.9834C4.75196 10.5741 4.70254 10.1651 4.65442 9.75586C4.65198 9.73443 4.65225 9.7126 4.6499 9.66309ZM5.22705 10.7051C5.23342 10.7758 5.23816 10.8475 5.24658 10.9189C5.28676 11.2599 5.32914 11.6013 5.36865 11.9424C5.50399 13.1119 5.63884 14.2815 5.77332 15.4512C5.88392 16.4065 6.01478 17.3596 6.09668 18.3174C6.09674 18.4492 6.14064 18.5775 6.22144 18.6816C6.30223 18.7857 6.41533 18.8598 6.54297 18.8926C7.1762 19.1109 7.84035 19.226 8.51013 19.2334C9.17789 19.271 9.84736 19.2802 10.5148 19.3223C11.0642 19.3532 11.6077 19.451 12.1332 19.6143C12.7093 19.7883 13.2471 20.0711 13.7177 20.4463C13.7961 20.5103 13.838 20.4926 13.9128 20.4336C14.1357 20.2443 14.373 20.0725 14.6224 19.9199C15.314 19.5555 16.0755 19.344 16.8558 19.2988C17.5398 19.2387 18.2273 19.2187 18.9126 19.1719C19.4147 19.1376 19.9171 19.0997 20.4169 19.042C20.8624 19.0052 21.2904 18.8521 21.658 18.5977C21.7062 18.56 21.7385 18.5057 21.7484 18.4453C21.852 17.4107 21.9502 16.3759 22.0491 15.3408C22.1846 13.9226 22.3199 12.5042 22.455 11.0859C22.473 10.8965 22.4875 10.7063 22.5065 10.4834C22.355 10.5753 22.2347 10.6547 22.1086 10.7236C21.572 10.998 20.9803 11.1482 20.3777 11.1621C19.834 11.1921 19.2872 11.16 18.7419 11.1689C18.1608 11.1785 17.5769 11.1718 16.9996 11.2285C16.4194 11.2747 15.8556 11.4444 15.3459 11.7256C14.8363 12.0067 14.3923 12.3932 14.0437 12.8594C13.9473 12.9845 13.8492 13.108 13.7458 13.2402C13.6614 13.1518 13.5844 13.074 13.5106 12.9932C13.0876 12.521 12.5799 12.1329 12.0137 11.8477C11.2293 11.4847 10.3743 11.3004 9.51001 11.3076C8.8181 11.2904 8.12566 11.2907 7.43372 11.2744C6.98842 11.2711 6.54645 11.199 6.12354 11.0596C5.82705 10.9569 5.53902 10.8294 5.22705 10.7051Z" fill="white"/>
<path d="M7.53906 7.27078C7.93667 7.07878 8.30259 6.90239 8.6687 6.72586C9.71638 6.22067 10.7633 5.7139 11.8136 5.21414C11.9036 5.17438 12.0029 5.1603 12.1003 5.1741C13.0832 5.31842 14.065 5.46986 15.047 5.62039C16.269 5.80773 17.4909 5.9959 18.7128 6.18387C19.0382 6.23387 19.3636 6.28363 19.7242 6.33914C19.6169 6.39732 19.5377 6.44332 19.4564 6.48465C18.1993 7.12384 16.9398 7.75764 15.6871 8.40555C15.5371 8.48101 15.3657 8.50352 15.2015 8.46805C13.7045 8.23361 12.2073 7.9995 10.71 7.76688C9.67846 7.60683 8.64676 7.44778 7.61487 7.29032C7.60218 7.28836 7.58978 7.28411 7.53906 7.27078Z" fill="white"/>
<path d="M10.4886 7.92871C10.7955 7.97692 11.0932 8.02379 11.3911 8.07031C12.499 8.24336 13.6069 8.416 14.7148 8.58887C14.9408 8.62413 15.1662 8.66412 15.3931 8.69141C15.4602 8.6974 15.5275 8.6843 15.5877 8.6543C15.9643 8.46614 16.3376 8.27139 16.7121 8.0791C16.7277 8.0711 16.7447 8.06667 16.7816 8.05176C16.7816 8.1341 16.7817 8.2038 16.7816 8.27441C16.781 8.63633 16.7769 8.99852 16.7818 9.36035C16.7858 9.38109 16.7854 9.40227 16.7807 9.42285C16.776 9.44343 16.767 9.46351 16.7545 9.48047C16.7419 9.49743 16.7259 9.511 16.7076 9.52148C16.6893 9.53197 16.669 9.53877 16.648 9.54102C15.5863 9.83013 14.4893 9.96974 13.389 9.95605C12.436 9.93523 11.4892 9.7965 10.5705 9.54199C10.5482 9.53389 10.5282 9.52043 10.5122 9.50293C10.4961 9.48543 10.4845 9.46435 10.4783 9.44141C10.4721 8.95589 10.4738 8.46997 10.4741 7.98438C10.4771 7.96538 10.4819 7.94676 10.4886 7.92871Z" fill="white"/>
<path d="M13.955 22.3448C13.9121 22.3141 13.8806 22.2702 13.8651 22.2198C13.8497 22.1694 13.8513 22.1159 13.8696 22.0665C13.8921 22.0082 13.9313 21.9577 13.9826 21.922C14.0338 21.8862 14.0945 21.8663 14.157 21.8653C14.2069 21.8582 14.2574 21.8566 14.3076 21.8604C14.3767 21.8566 14.4454 21.8728 14.5054 21.9073C14.5653 21.9418 14.614 21.9931 14.6453 22.0548C14.7051 22.1907 14.628 22.2802 14.516 22.381C14.5644 22.4184 14.6201 22.4409 14.6384 22.4806C14.6736 22.5482 14.6917 22.624 14.6909 22.7003C14.6747 22.9031 14.4914 22.9925 14.168 22.9698C13.944 22.9541 13.8072 22.8346 13.828 22.6427C13.8565 22.538 13.8991 22.4378 13.955 22.3448ZM14.41 22.6349C14.414 22.6133 14.4131 22.5916 14.4075 22.5704C14.4019 22.5492 14.3916 22.5286 14.3775 22.5118C14.3633 22.495 14.3457 22.4819 14.3257 22.4727C14.3057 22.4636 14.2839 22.4589 14.262 22.4591C14.1561 22.4526 14.11 22.5304 14.1011 22.6251C14.0987 22.6478 14.101 22.6707 14.1078 22.6925C14.1146 22.7143 14.1258 22.7347 14.1406 22.752C14.1555 22.7694 14.1737 22.7831 14.1942 22.7931C14.2147 22.8031 14.2371 22.8086 14.2599 22.8097C14.3664 22.8031 14.4058 22.7324 14.41 22.6349ZM14.2824 22.002L14.2167 22.005C14.1848 22.0589 14.1328 22.1101 14.1257 22.1671C14.1152 22.2517 14.1778 22.2983 14.2634 22.296C14.3508 22.2936 14.4071 22.2396 14.3895 22.1573C14.3775 22.1007 14.3197 22.0533 14.2824 22.002Z" fill="white"/>
<path d="M15.0163 22.3717C14.9641 22.3396 14.9245 22.2909 14.9043 22.233C14.884 22.1752 14.8843 22.112 14.905 22.0543C14.9333 21.9935 14.9791 21.9423 15.0366 21.9078C15.0941 21.8734 15.1607 21.8571 15.2276 21.861C15.2688 21.8583 15.3101 21.8591 15.3512 21.8629C15.4156 21.8587 15.4798 21.8731 15.536 21.9049C15.5922 21.9367 15.6379 21.9842 15.6675 22.0416C15.6925 22.1003 15.6955 22.1655 15.676 22.2262C15.6564 22.2869 15.6157 22.3387 15.5611 22.3717C15.5874 22.3951 15.6069 22.4118 15.6259 22.4293C15.6667 22.4632 15.6974 22.5083 15.7151 22.5582C15.7327 22.6082 15.7367 22.6615 15.7263 22.7135C15.7159 22.7655 15.6917 22.8138 15.6562 22.8531C15.6207 22.8925 15.5752 22.9214 15.5246 22.9371C15.4187 22.9636 15.3094 22.9748 15.2003 22.9694C15.1287 22.9765 15.0569 22.9589 14.9967 22.9196C14.9365 22.8802 14.8915 22.821 14.8694 22.7526C14.8202 22.6137 14.8605 22.5036 15.0163 22.3717ZM15.4461 22.6403C15.4406 22.538 15.3951 22.4627 15.2939 22.4586C15.1909 22.4544 15.1415 22.5263 15.136 22.6256C15.1327 22.6481 15.1341 22.6721 15.1404 22.694C15.1466 22.7159 15.1574 22.7361 15.172 22.7535C15.1866 22.771 15.2046 22.7845 15.2251 22.7946C15.2455 22.8046 15.2679 22.8103 15.2906 22.8112C15.3957 22.8036 15.4357 22.732 15.4461 22.6403ZM15.4228 22.1451C15.4238 22.1275 15.4205 22.1095 15.4133 22.0934C15.4061 22.0772 15.3952 22.0634 15.3814 22.0524C15.3677 22.0413 15.3514 22.0335 15.3341 22.0299C15.3168 22.0263 15.2989 22.0262 15.2818 22.0309C15.2527 22.041 15.2264 22.0577 15.2048 22.0797C15.1832 22.1017 15.1669 22.1286 15.1572 22.1578C15.1395 22.2404 15.2025 22.2958 15.2887 22.2955C15.3739 22.2953 15.4246 22.2485 15.4228 22.1451Z" fill="white"/>
<path d="M12.7831 22.7392C12.9315 22.7293 13.0372 22.6537 13.1415 22.7812C13.2023 22.8555 13.2916 22.811 13.3296 22.7304C13.3555 22.6561 13.3739 22.5798 13.3847 22.5019C13.3516 22.5126 13.3193 22.5249 13.2879 22.54C13.234 22.5756 13.1703 22.5941 13.1058 22.5917C13.0412 22.5894 12.9789 22.5668 12.9278 22.5273C12.8702 22.4885 12.8259 22.4329 12.8008 22.3681C12.7757 22.3034 12.771 22.2325 12.7874 22.165C12.7928 22.0978 12.8194 22.0334 12.8635 21.9824C12.9075 21.9314 12.9667 21.8958 13.0324 21.8808C13.375 21.8073 13.6302 21.9167 13.6547 22.3076C13.665 22.4302 13.6555 22.5542 13.6265 22.6738C13.6055 22.7393 13.5699 22.7988 13.5224 22.8486C13.4748 22.8983 13.4166 22.9369 13.3521 22.9609C13.2876 22.9848 13.2184 22.9939 13.15 22.9872C13.0815 22.9806 13.0154 22.9588 12.9567 22.9228C12.8924 22.8683 12.8342 22.8063 12.7831 22.7392ZM13.3621 22.249C13.3624 22.1233 13.3295 22.0376 13.2048 22.0331C13.0827 22.0287 13.0522 22.1144 13.0483 22.2148C13.0434 22.3409 13.1134 22.4299 13.2138 22.4228C13.2355 22.4228 13.257 22.4182 13.2767 22.4091C13.2964 22.4 13.3138 22.3866 13.3279 22.3701C13.342 22.3535 13.3524 22.3343 13.3583 22.3134C13.3642 22.2925 13.3655 22.2704 13.3621 22.249Z" fill="white"/>
<path d="M19.8999 9.20508L19.7983 9.05664L19.7708 9.06543L19.8438 9.54297L19.7953 9.54981L19.7531 9.28321L19.7106 9.28516V9.68555L19.665 9.6836V9.27149L19.6244 9.2666L19.5693 9.55371L19.5234 9.54981L19.5828 9.08008L19.5559 9.07325L19.4744 9.2041L19.439 9.19434C19.4447 9.10834 19.4629 9.02403 19.4933 8.94336C19.599 8.7456 19.6484 8.52273 19.6364 8.29883C19.6258 7.73089 19.6311 7.16187 19.6343 6.59375C19.6346 6.54167 19.5869 6.45058 19.6951 6.45117C19.7142 6.45128 19.7488 6.53989 19.7491 6.58789C19.7538 7.15141 19.7595 7.7149 19.7513 8.27832C19.7371 8.51151 19.7822 8.74406 19.8824 8.95508C19.9101 9.03265 19.927 9.11416 19.933 9.19629L19.8999 9.20508Z" fill="white"/>
<path d="M12.1452 22.9535V22.2367L11.8335 22.3783C11.8068 22.2382 11.8036 22.1387 11.9544 22.0951C12.0157 22.0755 12.0684 22.0354 12.104 21.9818C12.1339 21.9268 12.1835 21.8846 12.2428 21.8646C12.3021 21.8446 12.3668 21.8477 12.4239 21.8734C12.4266 21.9134 12.4325 21.9613 12.4326 22.0091C12.4336 22.2701 12.424 22.532 12.4367 22.7923C12.4437 22.9365 12.3951 22.9842 12.2597 22.9623C12.2288 22.9572 12.197 22.957 12.1452 22.9535Z" fill="white"/>
<path d="M10.77 17.916V13.4365C10.7872 13.4293 10.8054 13.4235 10.8239 13.4209C11.511 13.4234 12.1982 13.4222 12.8853 13.4326C13.1857 13.4158 13.4824 13.5051 13.7239 13.6846C13.8617 13.7939 13.9711 13.9351 14.0428 14.0957C14.1146 14.2563 14.1467 14.4318 14.1362 14.6074C14.1258 14.783 14.0732 14.9526 13.9829 15.1035C13.8926 15.2544 13.7672 15.3814 13.6174 15.4736C13.5988 15.4854 13.5812 15.4986 13.5499 15.5205C13.5766 15.5396 13.6047 15.557 13.6338 15.5723C13.878 15.6852 14.0777 15.8765 14.2017 16.1152C14.3256 16.354 14.3667 16.6269 14.3185 16.8916C14.2703 17.1563 14.1356 17.3974 13.9354 17.5771C13.7353 17.7569 13.4811 17.8652 13.2128 17.8848C12.4628 17.9178 11.7108 17.9078 10.9597 17.916C10.9012 17.9166 10.8427 17.916 10.77 17.916ZM11.8542 15.9717C11.8542 16.3223 11.8521 16.6747 11.8584 17.0264C11.8589 17.0546 11.9179 17.1054 11.9498 17.1055C12.2425 17.1064 12.5358 17.1074 12.8278 17.0898C12.9347 17.0859 13.0364 17.0434 13.114 16.9697C13.1916 16.8961 13.2396 16.796 13.2491 16.6895C13.264 16.5767 13.264 16.4624 13.2491 16.3496C13.2451 16.2515 13.2042 16.159 13.1345 16.0898C13.0649 16.0206 12.9716 15.98 12.8735 15.9766C12.5416 15.9583 12.2081 15.9717 11.8542 15.9717ZM11.8557 14.7158C11.8557 14.8486 11.8489 14.9814 11.8593 15.1133C11.8623 15.1511 11.9132 15.2153 11.9431 15.2158C12.2129 15.2207 12.4834 15.2212 12.7529 15.209C12.8301 15.2082 12.9045 15.18 12.9633 15.1299C13.022 15.0798 13.0613 15.0107 13.0742 14.9346C13.1017 14.7876 13.1017 14.6372 13.0742 14.4902C13.0612 14.4142 13.0212 14.3449 12.9617 14.2959C12.9021 14.2469 12.827 14.2209 12.7499 14.2227C12.4848 14.2112 12.2192 14.208 11.9539 14.2109C11.9316 14.2172 11.9113 14.2288 11.8949 14.2451C11.8785 14.2614 11.8666 14.2815 11.8602 14.3037C11.8493 14.4401 11.8557 14.5785 11.8557 14.7158Z" fill="white"/>
<path d="M8.87012 13.4961H9.92859V17.9014H8.87073C8.87073 17.8477 8.87073 17.7996 8.87073 17.751C8.87031 17.2513 8.86715 16.7516 8.8717 16.252C8.8727 16.1422 8.83703 16.1111 8.72949 16.1133C8.40415 16.1199 8.07864 16.1154 7.75317 16.1162C7.71798 16.1184 7.68299 16.1222 7.64819 16.1279V17.8994H6.58936V13.4971H7.63635C7.6398 13.5337 7.64592 13.5688 7.646 13.6035C7.647 14.0344 7.65093 14.4647 7.64502 14.8955C7.64342 15.0114 7.66813 15.0583 7.79492 15.0547C8.0972 15.046 8.40002 15.0474 8.70239 15.0547C8.82997 15.0577 8.87641 15.0228 8.87341 14.8867C8.86441 14.4743 8.87015 14.061 8.87012 13.6484C8.87015 13.6032 8.87012 13.5578 8.87012 13.4961Z" fill="white"/>
<path d="M18.4517 17.0321C18.5717 17.0426 18.6753 17.0559 18.7792 17.0595C18.8744 17.0789 18.9733 17.0674 19.0609 17.0253C19.1485 16.9832 19.2199 16.9136 19.2642 16.8271C19.2945 16.7539 19.2982 16.6723 19.2749 16.5966C18.9201 15.6105 18.5584 14.6268 18.1985 13.6425C18.183 13.6001 18.1697 13.5568 18.1475 13.4902C18.2716 13.4902 18.3831 13.4902 18.4946 13.4902C18.7237 13.4902 18.9531 13.4964 19.1819 13.4882C19.2798 13.4847 19.3158 13.5183 19.3394 13.6093C19.4759 14.1365 19.6182 14.6624 19.7593 15.1884C19.7686 15.2269 19.7911 15.2606 19.823 15.2841C19.8696 15.1089 19.9167 14.934 19.9628 14.7587C20.0639 14.3737 20.1667 13.9894 20.2639 13.6034C20.2654 13.5856 20.2706 13.5683 20.2792 13.5527C20.2877 13.537 20.2995 13.5235 20.3136 13.5126C20.3277 13.5017 20.344 13.4935 20.3613 13.4892C20.3787 13.4849 20.3967 13.4842 20.4143 13.4872C20.7297 13.4926 21.0452 13.4892 21.3811 13.4892C21.2836 13.7827 21.1935 14.0594 21.0996 14.3349C20.7762 15.2836 20.4534 16.2326 20.1249 17.1796C20.0747 17.3316 20.0066 17.4772 19.9221 17.6132C19.8374 17.7399 19.7199 17.8419 19.5822 17.9071C19.4444 17.9724 19.2915 17.9989 19.1398 17.9843C18.9389 17.9798 18.7383 17.954 18.5383 17.9316C18.5074 17.9281 18.4558 17.8908 18.4553 17.8681C18.4495 17.5948 18.4517 17.3211 18.4517 17.0321Z" fill="white"/>
<path d="M14.9897 13.4961H17.7412V14.5498C17.6898 14.5521 17.6369 14.5566 17.584 14.5566C17.1257 14.5572 16.6674 14.5605 16.2092 14.5537C16.0806 14.5518 16.038 14.5839 16.0388 14.7207C16.0446 15.7334 16.0414 16.746 16.041 17.7588C16.041 17.8035 16.041 17.8488 16.041 17.9023H14.9897V13.4961Z" fill="white"/>
</svg>
