<svg width="160" height="152" viewBox="0 0 160 152" fill="none" xmlns="http://www.w3.org/2000/svg">
<path d="M82.6678 2.77161L99.4174 54.3215C99.6037 54.8951 99.9669 55.3949 100.455 55.7494C100.943 56.1039 101.53 56.2948 102.133 56.2948H156.336C156.939 56.2948 157.527 56.4857 158.015 56.8402C158.503 57.1947 158.866 57.6946 159.052 58.2682C159.239 58.8418 159.239 59.4596 159.052 60.0332C158.866 60.6068 158.503 61.1066 158.015 61.4611L114.164 93.3207C113.676 93.6752 113.313 94.175 113.126 94.7486C112.94 95.3222 112.94 95.9401 113.126 96.5137L129.876 148.063C130.062 148.637 130.062 149.255 129.876 149.828C129.69 150.402 129.326 150.902 128.839 151.256C128.351 151.611 127.763 151.802 127.16 151.802C126.557 151.802 125.969 151.611 125.481 151.256L81.6304 119.397C81.1425 119.042 80.5548 118.852 79.9517 118.852C79.3486 118.852 78.761 119.042 78.2731 119.397L34.4222 151.256C33.9343 151.611 33.3466 151.802 32.7435 151.802C32.1404 151.802 31.5528 151.611 31.0649 151.256C30.5769 150.902 30.2138 150.402 30.0274 149.828C29.841 149.255 29.8411 148.637 30.0274 148.063L46.777 96.5137C46.9634 95.9401 46.9634 95.3222 46.777 94.7486C46.5906 94.175 46.2275 93.6751 45.7396 93.3206L1.88865 61.4612C1.40073 61.1067 1.03757 60.6068 0.851202 60.0333C0.664834 59.4597 0.664834 58.8418 0.851202 58.2682C1.03757 57.6946 1.40073 57.1948 1.88865 56.8403C2.37656 56.4858 2.9642 56.2949 3.5673 56.2949H57.77C58.3731 56.2949 58.9607 56.1039 59.4486 55.7495C59.9366 55.395 60.2998 54.8951 60.4861 54.3215L77.2357 2.77167C77.422 2.19809 77.7852 1.69824 78.2731 1.34375C78.761 0.989262 79.3486 0.798345 79.9517 0.79834C80.5548 0.798334 81.1424 0.989271 81.6303 1.34375C82.1183 1.69823 82.4814 2.19804 82.6678 2.77161Z" fill="#4BC9D8"/>
</svg>
