<svg width="45" height="45" viewBox="0 0 45 45" fill="none" xmlns="http://www.w3.org/2000/svg">
<path d="M18.7982 0.222168C19.0005 0.236758 19.2028 0.253497 19.4053 0.265137C20.7921 0.3468 22.1642 0.593935 23.4924 1.00098C25.6644 1.65731 27.6909 2.72305 29.4626 4.14062C31.6898 5.90425 33.4677 8.17006 34.6507 10.7529C35.7091 13.0551 36.2666 15.5561 36.2863 18.0898C36.3059 20.6236 35.7872 23.1324 34.7645 25.4507C34.4019 26.2717 33.9791 27.0649 33.4997 27.8237C33.467 27.8755 33.4352 27.9279 33.3945 27.9937C33.5462 28.1435 33.6992 28.2931 33.8505 28.4443C37.3959 31.9883 40.9415 35.532 44.4872 39.0757C44.6684 39.2383 44.7887 39.4579 44.828 39.6982C44.8472 39.8296 44.8382 39.9637 44.8017 40.0913C44.7652 40.2189 44.702 40.3372 44.6162 40.4385C44.5791 40.4825 44.5397 40.5246 44.4981 40.5645C43.1822 41.8814 41.8662 43.198 40.5501 44.5146C40.4604 44.6142 40.3508 44.6936 40.2284 44.748C40.106 44.8025 39.9735 44.8306 39.8395 44.8306C39.7055 44.8305 39.573 44.8026 39.4506 44.748C39.3283 44.6935 39.2187 44.6138 39.1292 44.5142C36.429 41.813 33.7291 39.1113 31.0295 36.4097C30.0555 35.435 29.0817 34.46 28.1081 33.4849C28.0799 33.4513 28.0552 33.4149 28.0343 33.3765C27.7038 33.5727 27.407 33.7552 27.1047 33.9277C24.7081 35.2802 22.0335 36.0654 19.2862 36.2236C16.5389 36.3818 13.7918 35.9088 11.2558 34.8403C8.71981 33.7719 6.4623 32.1366 4.65649 30.0601C2.85069 27.9835 1.5446 25.5211 0.83844 22.8613C0.562494 21.843 0.383581 20.8006 0.304138 19.7485C0.283018 19.4732 0.271583 19.1975 0.254333 18.9219C0.251473 18.8762 0.241533 18.8306 0.234863 18.7852V17.7026C0.242985 17.6696 0.249093 17.6363 0.253113 17.6025C0.270623 17.3193 0.282116 17.0358 0.304016 16.7529C0.394412 15.5944 0.601498 14.4476 0.922119 13.3306C1.78847 10.3029 3.42994 7.5539 5.68427 5.35498C7.93859 3.15606 10.7277 1.58323 13.776 0.79248C14.8669 0.507086 15.9835 0.330613 17.1093 0.265625C17.3116 0.253945 17.5136 0.236928 17.7157 0.222168H18.7982ZM18.2514 30.5542C20.6853 30.5556 23.0649 29.8354 25.0894 28.4844C27.1139 27.1333 28.6923 25.212 29.6249 22.9639C30.5576 20.7158 30.8027 18.2419 30.3292 15.8545C29.8557 13.4671 28.6849 11.2737 26.9648 9.55176C25.2447 7.82981 23.0526 6.65628 20.6657 6.18018C18.2788 5.70407 15.8044 5.94673 13.5553 6.87695C11.3062 7.80718 9.38345 9.38325 8.03021 11.4062C6.67697 13.4293 5.95406 15.8083 5.95282 18.2422C5.95693 21.504 7.25356 24.6313 9.55872 26.939C11.8639 29.2466 14.9896 30.5465 18.2514 30.5542Z" fill="#4BC9D8"/>
</svg>
