<svg width="41" height="26" viewBox="0 0 41 26" fill="none" xmlns="http://www.w3.org/2000/svg">
<path d="M40.7993 12.669C40.5698 12.3802 40.3476 12.0853 40.1232 11.7925C38.914 10.2353 37.5592 8.7969 36.077 7.49688C34.7134 6.2789 33.2408 5.18866 31.6777 4.24004C29.4316 2.85239 26.9585 1.87129 24.3719 1.3416C21.7828 0.800265 19.1063 0.834821 16.532 1.44292C14.0955 2.0683 11.7728 3.07388 9.64941 4.42241C8.33374 5.21288 7.08524 6.11009 5.9165 7.10503C4.8856 7.99694 3.84553 8.88272 2.875 9.83843C1.95231 10.7469 1.11453 11.743 0.238525 12.6993C0.184076 12.7495 0.126388 12.7959 0.065918 12.8387V13.7381C0.14291 13.7553 0.210501 13.8011 0.255005 13.8663C0.665655 14.3988 1.05709 14.9473 1.48877 15.4622C2.9601 17.2362 4.59675 18.8661 6.37671 20.3301C8.29268 21.9284 10.4226 23.2514 12.7046 24.2603C14.2975 24.9546 15.9811 25.4185 17.7047 25.6385C19.5449 25.8479 21.406 25.782 23.2267 25.4427C25.9002 24.9571 28.4717 24.0207 30.8314 22.6734C32.5996 21.6776 34.2628 20.506 35.7958 19.1763C37.6501 17.5943 39.3253 15.8136 40.7914 13.8663C40.8561 13.8015 40.9295 13.7462 41.0095 13.7017V12.8475C40.9337 12.7952 40.8633 12.7353 40.7993 12.669ZM39.4153 13.4458C38.2362 14.9306 36.9349 16.3142 35.5251 17.5821C33.7523 19.1853 31.7953 20.5722 29.6952 21.7137C27.5185 22.8971 25.165 23.721 22.7255 24.1536C20.0154 24.6474 17.2237 24.4298 14.6229 23.522C12.8893 22.9061 11.2371 22.0811 9.703 21.0655C7.51249 19.6121 5.51115 17.8921 3.74487 15.9451C3.02039 15.1585 2.36197 14.3112 1.66711 13.4961C1.55035 13.3589 1.52184 13.2586 1.66138 13.1146C2.61028 12.1343 3.50673 11.0976 4.50916 10.1761C5.70752 9.07569 6.95994 8.02718 8.25171 7.03789C9.86399 5.80433 11.6176 4.76721 13.4752 3.94854C14.7901 3.33394 16.1759 2.88408 17.6011 2.60942C18.5887 2.44027 19.5906 2.35537 20.1106 2.29155C22.4669 2.28636 24.8053 2.70084 27.0165 3.51519C28.746 4.16826 30.3953 5.01667 31.9324 6.04399C33.7837 7.26892 35.4885 8.70183 37.0134 10.315C37.8455 11.1955 38.6054 12.1451 39.4011 13.0604C39.4306 13.0826 39.4547 13.1111 39.4718 13.1438C39.4889 13.1766 39.4984 13.2129 39.4998 13.2498C39.5011 13.2867 39.4942 13.3235 39.4796 13.3575C39.465 13.3914 39.443 13.4215 39.4153 13.4458Z" fill="#B7B7B7"/>
<path d="M20.4919 4.83825C22.1551 4.82948 23.7845 5.308 25.179 6.21447C26.5734 7.12095 27.6719 8.41577 28.339 9.93933C29.0061 11.4629 29.2125 13.1485 28.9327 14.788C28.653 16.4275 27.8994 17.9492 26.7649 19.1654C25.6304 20.3816 24.1646 21.2389 22.5485 21.6317C20.9323 22.0245 19.2366 21.9356 17.6704 21.3759C16.1042 20.8161 14.7362 19.81 13.7351 18.4818C12.7341 17.1536 12.1439 15.5615 12.0372 13.9017C11.9657 12.7441 12.1309 11.5838 12.5226 10.4921C12.9143 9.40033 13.5244 8.40001 14.3156 7.55188C15.1068 6.70374 16.0625 6.02572 17.1244 5.5592C18.1863 5.09268 19.3321 4.84724 20.4919 4.83825ZM20.5105 20.5284C21.9289 20.5317 23.3165 20.114 24.4974 19.3282C25.6784 18.5425 26.5996 17.4239 27.1445 16.1144C27.6895 14.8048 27.8336 13.3631 27.5587 11.9716C27.2838 10.58 26.6022 9.30121 25.6002 8.29724C24.5982 7.29326 23.3209 6.60931 21.9299 6.33166C20.5389 6.05401 19.0969 6.19531 17.7863 6.73767C16.4756 7.28002 15.3553 8.19893 14.5673 9.37829C13.7792 10.5577 13.3587 11.9442 13.3591 13.3627C13.3682 15.2578 14.1241 17.0732 15.4629 18.4147C16.8017 19.7561 18.6153 20.5156 20.5105 20.5284Z" fill="#B7B7B7"/>
<path d="M15.7686 13.3549C15.7705 12.415 16.051 11.4967 16.5747 10.7162C17.0983 9.93572 17.8417 9.32797 18.7107 8.96986C19.5796 8.61175 20.5353 8.51931 21.4567 8.70424C22.3782 8.88917 23.2243 9.34327 23.8878 10.0089C24.5513 10.6746 25.0026 11.5219 25.1845 12.444C25.3665 13.3661 25.271 14.3215 24.9101 15.1893C24.5492 16.0572 23.9391 16.7986 23.1569 17.3197C22.3748 17.8409 21.4557 18.1182 20.5158 18.1171C19.8907 18.1188 19.2713 17.9969 18.6936 17.7579C18.1158 17.519 17.5911 17.168 17.1497 16.7252C16.7084 16.2825 16.3592 15.7566 16.1222 15.1781C15.8851 14.5996 15.7649 13.98 15.7686 13.3549Z" fill="#B7B7B7"/>
</svg>
